<?xml version="1.0"?>
<svg width="116.214" height="116.214" xmlns="http://www.w3.org/2000/svg" xmlns:svg="http://www.w3.org/2000/svg">
 <g class="layer">
  <title>Layer 1</title>
  <g id="svg_1">
   <path d="m114.452,54.13c0,-3.975 -3.253,-7.228 -7.228,-7.228l-98.234,0c-3.975,0 -7.227,3.253 -7.227,7.228c0,3.379 2.358,6.214 5.504,6.995l9.966,47.148c0,4.368 3.573,7.941 7.941,7.941l67.166,0c4.368,0 7.941,-3.573 7.941,-7.941l10.075,-47.663c2.411,-1.174 4.096,-3.63 4.096,-6.48zm-80.224,44.929c0,1.365 -1.117,2.481 -2.482,2.481l-0.684,0c-1.365,0 -2.482,-1.117 -2.482,-2.481l0,-29.045c0,-1.365 1.117,-2.481 2.482,-2.481l0.684,0c1.365,0 2.482,1.116 2.482,2.481l0,29.045zm18.169,0c0,1.365 -1.117,2.481 -2.482,2.481l-0.684,0c-1.365,0 -2.482,-1.117 -2.482,-2.481l0,-29.045c0,-1.365 1.116,-2.481 2.482,-2.481l0.684,0c1.365,0 2.482,1.116 2.482,2.481l0,29.045zm18.168,0c0,1.365 -1.116,2.481 -2.482,2.481l-0.683,0c-1.365,0 -2.481,-1.117 -2.481,-2.481l0,-29.045c0,-1.365 1.116,-2.481 2.481,-2.481l0.684,0c1.365,0 2.482,1.116 2.482,2.481l0,29.045l-0.001,0zm18.169,0c0,1.365 -1.117,2.481 -2.481,2.481l-0.684,0c-1.365,0 -2.482,-1.117 -2.482,-2.481l0,-29.045c0,-1.365 1.117,-2.481 2.482,-2.481l0.684,0c1.365,0 2.481,1.116 2.481,2.481l0,29.045z" fill="#beabcc" id="svg_2"/>
   <path d="m26.283,34.868c2.25,-15.668 15.69,-27.723 31.981,-27.723c16.291,0 29.732,12.055 31.982,27.723c0.328,5.35 7.22,4.494 7.22,0c-2.295,-19.628 -18.957,-34.868 -39.202,-34.868c-20.244,0 -36.907,15.24 -39.201,34.868c0,5.565 7.308,5.779 7.22,0z" fill="#beabcc" id="svg_3"/>
  </g>
  <g id="svg_4"/>
  <g id="svg_5"/>
  <g id="svg_6"/>
  <g id="svg_7"/>
  <g id="svg_8"/>
  <g id="svg_9"/>
  <g id="svg_10"/>
  <g id="svg_11"/>
  <g id="svg_12"/>
  <g id="svg_13"/>
  <g id="svg_14"/>
  <g id="svg_15"/>
  <g id="svg_16"/>
  <g id="svg_17"/>
  <g id="svg_18"/>
 </g>
</svg>