<?xml version="1.0" encoding="UTF-8"?>
<!DOCTYPE svg PUBLIC "-//W3C//DTD SVG 1.1//EN" "http://www.w3.org/Graphics/SVG/1.1/DTD/svg11.dtd">
<!-- Creator: CorelDRAW 2020 (64-Bit) -->
<svg xmlns="http://www.w3.org/2000/svg" xml:space="preserve" width="8.59917in" height="8.59917in" version="1.1" style="shape-rendering:geometricPrecision; text-rendering:geometricPrecision; image-rendering:optimizeQuality; fill-rule:evenodd; clip-rule:evenodd"
viewBox="0 0 4797.17 4797.17"
 xmlns:xlink="http://www.w3.org/1999/xlink"
 xmlns:xodm="http://www.corel.com/coreldraw/odm/2003">
 <defs>
  <style type="text/css">
   <![CDATA[
    .fil0 {fill:#FEFEFE}
    .fil2 {fill:#BF8CBD}
    .fil3 {fill:#571A60}
    .fil1 {fill:#571A60;fill-rule:nonzero}
   ]]>
  </style>
 </defs>
 <g id="Layer_x0020_1">
  <metadata id="CorelCorpID_0Corel-Layer"/>
  <g id="_2639566380144">
   <g>
    <circle class="fil0" cx="2398.59" cy="2398.59" r="2364.85"/>
    <path class="fil1" d="M2398.59 0c662.33,0 1262,268.48 1696.05,702.54 434.06,434.05 702.54,1033.7 702.54,1696.05 0,662.33 -268.48,1262 -702.54,1696.05 -434.05,434.06 -1033.72,702.54 -1696.05,702.54 -662.35,0 -1262,-268.48 -1696.05,-702.54 -434.06,-434.05 -702.54,-1033.72 -702.54,-1696.05 0,-662.35 268.48,-1262 702.54,-1696.05 434.05,-434.06 1033.7,-702.54 1696.05,-702.54zm1648.35 750.23c-421.84,-421.84 -1004.62,-682.76 -1648.35,-682.76 -643.73,0 -1226.52,260.92 -1648.35,682.76 -421.84,421.84 -682.76,1004.62 -682.76,1648.35 0,643.73 260.92,1226.52 682.76,1648.35 421.84,421.84 1004.62,682.76 1648.35,682.76 643.73,0 1226.52,-260.92 1648.35,-682.76 421.84,-421.84 682.76,-1004.62 682.76,-1648.35 0,-643.73 -260.92,-1226.52 -682.76,-1648.35z"/>
   </g>
   <g>
    <path class="fil2" d="M1032.35 1017.01c-23.15,46.55 -30.78,151.06 -29.74,206.84 1.04,55.79 9.4,177.15 26.99,224.72 17.59,47.57 36.05,106.3 33.71,109.16 -2.34,2.85 -51.66,57.26 -58.59,61 -6.93,3.74 -38.85,50.94 -44.95,64.21 -6.1,13.27 39.99,-31.38 64.22,-44.95 24.22,-13.56 67.24,-40.97 66.62,-20.87 -0.62,20.1 -43.35,97.78 -53.79,149.29 -10.43,51.52 -5.07,139.62 5.56,165.29 6.64,16.03 42.53,-83.04 50.42,-76.01 4.74,4.22 -13.8,176.93 -4.61,154.73 24.51,-59.17 29.58,-68.11 57.79,-96.32 28.21,-28.21 12.84,-4.28 12.84,44.95 0,49.23 7.45,116.61 13.39,159.18 5.94,42.57 44.85,184.21 46.8,194.78 1.95,10.57 14.06,87.11 30.51,93.51 16.45,6.4 13.94,-157.59 14.88,-240.91 0.94,-83.32 7.1,-117.66 46.92,-213.8 39.82,-96.14 45.75,-123.94 55.39,-137.25 9.64,-13.31 72.64,-100.4 85.89,-112.37 7.8,-7.06 22.29,-45.4 37.38,-53.46 10.51,-5.62 18.45,23.28 36.77,4.41 44.64,-45.97 107.46,-122.17 147.37,-170.06 39.91,-47.89 73.39,-115.73 87.4,-153.67 14.01,-37.94 26.73,-60.16 -7.94,-63.85 -34.67,-3.69 -128.8,-20.77 -158.12,-32.91 -29.32,-12.14 -121.2,-44.51 -146.08,-48.96 -24.88,-4.45 -119.94,-38.37 -142.31,-60.75 -22.37,-22.37 -145.2,-77.35 -188.38,-92.56 -43.18,-15.2 -63.19,-59.94 -86.34,-13.38z"/>
    <path class="fil2" d="M3844.16 1014.34c23.15,46.55 30.78,151.06 29.74,206.84 -1.04,55.78 -9.4,177.15 -26.99,224.72 -17.59,47.57 -36.05,106.3 -33.71,109.16 2.35,2.85 51.66,57.26 58.59,61 6.93,3.74 38.85,50.94 44.95,64.21 6.1,13.27 -40,-31.39 -64.22,-44.95 -24.22,-13.56 -67.24,-40.97 -66.63,-20.87 0.62,20.1 43.35,97.77 53.79,149.29 10.44,51.52 5.07,139.62 -5.56,165.29 -6.64,16.03 -42.53,-83.04 -50.42,-76.01 -4.74,4.22 13.8,176.93 4.61,154.72 -24.51,-59.17 -29.58,-68.11 -57.79,-96.32 -28.21,-28.21 -12.84,-4.28 -12.84,44.95 0,49.23 -7.45,116.61 -13.39,159.18 -5.94,42.57 -44.86,184.21 -46.81,194.78 -1.95,10.57 -14.06,87.11 -30.51,93.51 -16.45,6.4 -13.94,-157.59 -14.88,-240.91 -0.94,-83.32 -7.1,-117.66 -46.92,-213.8 -39.82,-96.14 -45.75,-123.94 -55.39,-137.25 -9.64,-13.31 -72.64,-100.4 -85.89,-112.37 -7.81,-7.06 -22.29,-45.4 -37.39,-53.46 -10.51,-5.62 -18.45,23.28 -36.77,4.41 -44.64,-45.96 -107.46,-122.17 -147.37,-170.06 -39.91,-47.89 -73.39,-115.73 -87.4,-153.67 -14.01,-37.94 -26.73,-60.16 7.94,-63.85 34.66,-3.69 128.8,-20.77 158.12,-32.91 29.32,-12.14 121.2,-44.51 146.08,-48.96 24.88,-4.45 119.94,-38.37 142.31,-60.75 22.37,-22.37 145.2,-77.36 188.38,-92.56 43.18,-15.2 63.19,-59.94 86.34,-13.38z"/>
    <circle class="fil2" cx="2440.08" cy="2302.64" r="1009.33"/>
    <path class="fil0" d="M3240.3 1738.72c-15.25,-9.63 -34.51,-36.93 -33.71,-8.03 0.8,28.9 3.21,17.66 11.24,64.22 8.02,46.55 24.88,70.63 35.32,99.53 10.43,28.89 19.26,55.39 26.49,80.27 7.22,24.88 28.1,106.75 32.91,119.59 4.81,12.84 16.85,42.54 27.29,69.03 10.43,26.49 38.1,42.44 40.94,60.2 2.83,17.76 26.49,-0.8 26.49,-15.25 0,-14.45 -7.22,-17.65 -4.82,-33.71 2.41,-16.06 17.66,-24.88 13.64,-48.16 -4.01,-23.28 -6.42,-41.74 -15.25,-82.68 -8.83,-40.94 -28.1,-103.54 -38.53,-128.42 -10.43,-24.89 -28.89,-58.6 -35.32,-69.83 -6.42,-11.24 -32.9,-57.8 -43.34,-69.03 -10.43,-11.24 -43.34,-37.72 -43.34,-37.72zm-811.93 1380.19c1.61,20.87 19.26,65.01 32.91,73.04 13.65,8.03 31.3,4.82 32.91,-18.46 1.61,-23.28 20.07,-68.23 32.91,-91.5 12.84,-23.27 83.47,-81.07 114.78,-96.32 31.31,-15.25 187.02,-120.4 207.09,-149.29 20.07,-28.89 101.13,-93.91 113.17,-124.41 12.04,-30.5 154.92,-225.54 161.34,-251.23 6.42,-25.69 14.45,-44.15 -3.21,-58.6 -17.66,-14.45 -8.83,-17.66 -60.2,-39.33 -51.37,-21.67 -54.58,-25.69 -79.46,-35.32 -24.88,-9.63 -53.77,-39.33 -77.05,-65.82 -23.28,-26.49 -36.12,-53.77 -56.19,-73.84 -20.07,-20.07 -30.5,-27.29 -61.8,-29.7 -31.3,-2.41 -65.82,-29.7 -77.05,-40.13 -11.24,-10.44 -26.48,-19.27 -79.46,-25.69 -52.98,-6.42 -34.52,-19.26 -85.89,-24.88 -51.37,-5.62 -53.77,-4.81 -79.46,8.83 -25.69,13.64 -43.35,20.06 -69.83,23.27 -26.49,3.21 -36.92,10.43 -62.61,-4.82 -25.69,-15.25 -58.6,-29.69 -73.05,-37.72 -14.45,-8.03 -20.87,-19.26 -20.87,-19.26l34.52 -22.47 20.07 -20.07 -63.41 0 -53.78 -16.05 -32.91 -18.46 22.48 -81.87c0,0 -63.41,53.77 -82.68,60.2 -19.26,6.42 -18.46,28.89 -34.52,-2.41 -16.05,-31.3 -26.49,-54.58 -26.49,-66.62 0,-12.04 24.08,-77.06 24.08,-77.06l48.16 -42.54 101.13 -10.43 59.4 -9.63 29.7 12.04 39.33 25.69 20.07 1.6 -1.99 -47.76 40.94 -45.75 52.17 -63.41c0,0 70.64,-49.77 77.06,-52.98 6.42,-3.21 85.08,-44.95 85.08,-44.95 0,0 59.4,-9.62 65.02,-20.87 5.62,-11.24 11.24,-32.11 11.24,-38.53 0,-6.42 -0.81,-9.64 -32.11,-23.28 -31.3,-13.64 -56.18,-28.89 -76.25,-44.95 -20.07,-16.05 -17.66,-36.92 -65.02,-45.75 -47.36,-8.83 -27.29,-16.85 -93.91,-3.21 -66.62,13.65 -124.41,12.84 -143.67,14.45 -19.27,1.61 -48.17,1.61 -66.63,1.61 -18.46,0 -66.62,11.24 -71.43,15.25 -4.81,4.01 -32.11,24.08 -36.12,29.7 -4.01,5.62 -28.09,30.5 -51.37,41.74 -23.28,11.24 -28.9,9.64 -49.77,18.46 -20.87,8.83 -60.19,19.26 -71.43,26.49 -11.24,7.22 -20.07,21.67 -27.29,35.32 -7.22,13.65 -40.93,61.8 -44.15,66.62 -3.21,4.82 -17.66,25.68 -23.28,40.13 -5.62,14.45 -8.83,34.52 -13.64,44.95 -4.81,10.43 -8.82,37.72 -9.63,51.37 -0.81,13.65 0,27.29 -1.61,44.15 -1.61,16.86 -1.61,43.34 -1.61,54.58 0,11.24 11.24,16.05 32.11,16.05 20.87,0 34.51,-0.8 44.95,16.86 10.43,17.66 17.66,31.3 30.5,39.33 12.84,8.03 41.74,17.66 48.97,28.89 7.22,11.24 43.34,34.52 54.58,39.33 11.24,4.81 41.73,4.81 52.17,8.83 10.43,4.01 29.7,7.22 40.94,27.29 11.24,20.07 47.55,36.56 52.98,51.37 5.42,14.81 44.15,22.48 75.45,39.33 31.3,16.85 45.75,36.92 51.37,48.16 5.62,11.24 22.47,24.88 21.67,47.35 -0.8,22.47 -11.24,56.19 -9.64,72.24 1.61,16.05 8.83,32.9 15.25,69.03 6.42,36.12 9.14,67.31 9.63,91.5 0.5,24.2 56.18,89.9 70.63,105.95 14.45,16.05 142.87,131.63 142.87,131.63 0,0 -31.3,101.13 -36.12,128.42 -4.81,27.29 -63.03,334.31 -63.03,334.31z"/>
    <path class="fil1" d="M3424.51 2211.81c-2.62,8.28 -8.05,15.72 -14.8,20.96 -3.56,2.76 -7.59,5 -11.83,6.48 -4.6,1.61 -9.44,2.36 -14.28,2.03 -8.99,-0.62 -17.63,-4.67 -24.39,-13.4 -53.73,-69.28 -70.74,-153.22 -87.44,-235.65l-5.41 -26.3c-0.94,-4.52 -4.78,-15.26 -9.43,-27.43 -8.75,-22.92 -19.91,-49.42 -21.3,-52.5 -8.66,-19.24 -18.77,-43.86 -26.37,-68.81 -5.43,-17.81 -9.55,-35.71 -10.91,-51.84 -6.33,-12.66 -12.2,-31.71 -13.27,-43.92 -0.45,-5.13 -0.16,-9.87 1.08,-13.82 3.08,-9.87 9.66,-15.11 20.44,-14.02 5.15,0.52 10.57,3.17 16.16,8.5l9.68 9.32c-28.51,-38.16 -59.73,-74.19 -93.34,-107.81 -178.89,-178.89 -426.04,-289.54 -699.03,-289.54 -83.19,0 -163.98,10.29 -241.17,29.65l4.17 0.01c15.17,0.01 30.4,0.04 46.06,-0.74 31.06,-1.55 62.69,-7.13 94.3,-12.71 17.22,-3.04 34.45,-6.08 53.36,-8.68l1.31 -0.18c40.53,-5.59 87.7,-12.09 127.75,9.51 16.24,8.75 27.63,21.36 39.01,33.96l0.06 0c9.15,10.13 18.31,20.28 29.06,26.4 9.74,5.55 19.75,9.64 29.54,13.64l0.02 -0.05c23.57,9.62 46.09,18.82 64.5,43.5 6.87,9.22 7.88,19.37 5.39,28.86 -2.54,9.67 -9.21,18.51 -16.58,24.11 -32.14,24.45 -69.33,37.21 -106.42,49.94 -40.74,13.97 -81.39,27.92 -110.66,56.85 -12.21,12.07 -22.8,26.03 -33.35,39.92l0.04 0.04c-2.93,3.86 -6,7.9 -11.01,14.3 -11.4,14.56 -23.64,26.9 -36.01,39.34 -4.49,4.52 -9.01,9.07 -13.63,13.88 -3.86,4.02 -7.76,8.09 -9.92,11.65l0 0.06c-1.38,2.27 -2.21,4.66 -1.91,7.19 1.04,8.51 4.85,18.06 8.57,27.37 2.27,5.6 4.49,11.16 6.35,16.96 2.1,6.53 2.37,11.99 1.2,16.53 -2.54,9.8 -9.07,14.34 -18.42,14.67 -4.3,0.15 -8.9,-1.03 -13.56,-3.16 -9.65,-4.43 -22.6,-14.5 -31.57,-22.91 -7.1,-6.65 -12.76,-9.23 -18.04,-11.63 -9.23,-4.22 -17.71,-8.09 -29.23,-22.12 -8.04,-9.8 -26.05,-3.71 -42.63,1.88 -8.57,2.89 -16.88,5.71 -24.73,7.08 -13.46,2.35 -27.62,2.9 -41.83,3.45l-0.06 0c-29.22,1.13 -58.75,2.29 -77.81,22.61 -15.22,16.22 -25.31,40.21 -28.44,64.99 -2.95,23.35 0.36,47.03 11.49,64.96l0 0.06c1.74,2.8 3.8,5.66 6.08,8.53l1.92 2.34c9.47,-1.21 17.1,-3.07 24.01,-6.09 8.74,-3.83 17.08,-9.8 27.2,-18.9 25.6,-25.01 49.41,-36.24 63.19,-38.57 5.58,-0.94 10.58,-0.67 14.67,0.64 8.87,2.83 13.75,9.02 14,18.06 0.18,6.42 -2.89,13.37 -9.83,19.81 -2.23,2.07 -6.73,11.12 -11.33,20.38 -6.33,12.74 -12.83,25.8 -20.35,32.59 -1.85,2.03 -3.51,4.05 -4.83,5.99 13.82,5.64 27.99,10.17 42.25,13.43 14.73,3.36 29.62,5.42 44.41,6.02 5.99,0.24 13.52,-0.19 20.79,-0.61 14.47,-0.83 28.17,-1.61 37.65,2.66 12.97,5.83 18.1,15.51 10.95,31.39l-1.34 2.97 -2.58 2.36c-14.89,13.61 -30.83,21.8 -44.38,27.05l8.17 5.8c10.62,5.83 21.5,11.58 32.82,17.09 11.07,5.4 22.17,10.38 33.26,14.75 1.97,0.58 3.94,1.35 5.87,2.31l0.06 0.06c2.11,1.06 4.25,2.4 6.39,4.05 7.52,5.79 19.64,-0.18 31.21,-5.86 4.16,-2.04 8.3,-4.08 11.01,-5.25l0.02 0.06c9.5,-4.11 18.97,-8.19 27.1,-11.39 9.2,-3.62 18.69,-7.01 28.65,-9.91 22.43,-6.52 43.25,-8.33 63.85,-6.76 20.18,1.53 40.03,6.32 60.98,13.07 14.86,4.78 30.93,6.25 46.96,7.71 18.64,1.7 37.23,3.4 55.87,9.76 9.2,3.14 17.82,7.16 25.99,11.91 8.16,4.75 15.77,10.13 22.96,16.02 4.89,4 9.72,8.66 14.55,13.32 6.79,6.56 13.62,13.15 20.82,17.41 10.55,6.24 23.03,8.86 35.42,11.46 20.2,4.24 40.25,8.46 58.95,25.76 20.56,19.03 34.9,42.23 48.93,64.91l4.35 7.02c7.22,11.52 14.67,22.58 23.24,31.73 8.09,8.63 17.39,15.83 28.8,20.5 9.21,3.77 19.02,7.36 28.82,10.94l0.06 0c14.46,5.29 28.93,10.59 43.91,17.47 21.12,9.72 50.03,24.25 72.52,43.97 25.04,21.97 42.15,49.96 34.54,84.64 -3.74,17.06 -13.37,28.93 -22.93,40.73l-4.17 5.24c-5.75,7.31 -10.95,14.65 -15.84,21.97 -4.99,7.47 -10.03,15.46 -15.05,23.47 -10.57,16.85 -21.77,33.57 -32.96,50.28 -9.5,14.2 -19,28.38 -29.48,44.88l-3.77 5.94c-17.46,27.52 -34.94,55.06 -56.32,80.66 -15.17,18.16 -32.06,34.97 -48.93,51.76 -10.46,10.41 -20.92,20.83 -31.18,31.85 -22.95,24.67 -46.01,49.08 -70.62,71.97 -24.87,23.13 -51.3,44.65 -80.72,63.2 -17.82,11.24 -35.02,21.1 -52.15,30.92 -68.16,39.07 -135.54,77.71 -160.85,153.31 -1.81,9.57 -3.65,18.88 -6.07,27.92 -2.67,10.01 -6.08,19.93 -10.92,29.91 -2.05,4.22 -4.92,7.84 -8.32,10.79 -5.72,4.95 -13.05,8.01 -20.54,8.97 -7.44,0.95 -15.24,-0.13 -21.98,-3.4 -4.06,-1.98 -7.79,-4.75 -10.89,-8.32 -14.73,-16.99 -21.13,-36.14 -23.03,-56.12 -1.78,-18.76 0.43,-37.5 3.21,-55.71l0.06 -0.06 3.64 -23.59c5.53,-35.68 11.06,-71.31 15.57,-107.07 11.31,-89.65 32.68,-176.82 54.02,-263.86l7.03 -28.72c0.49,-2.02 1.12,-3.95 1.86,-5.76 -5.51,-4.58 -11.6,-9.03 -17.63,-13.45 -11.63,-8.53 -23.12,-16.95 -32.26,-27.13l0 -0.06c-12.47,-13.9 -23.88,-26.89 -35.24,-39.85 -10.77,-12.27 -21.45,-24.45 -35.12,-39.68 -26.25,-29.25 -50.52,-61.04 -67.79,-96.05 -17.66,-35.79 -27.95,-74.73 -25.6,-117.42 0.75,-13.95 -3.29,-24.19 -7.14,-33.91 -6.33,-15.99 -12.24,-30.98 -5.57,-56.43 9.53,-36.38 12.25,-57.83 6.37,-73.34 -5.69,-15.03 -21.04,-27.59 -47.5,-45.8 -13.29,-7.31 -27.57,-15.46 -41.86,-23.62l-0.9 -0.51c-16.76,-9.56 -26.8,-17.86 -36.6,-25.96 -9.63,-7.97 -19.05,-15.75 -34.49,-23.84 -15.69,-8.22 -32.82,-24.82 -48.4,-39.93 -6.25,-6.06 -12.25,-11.87 -17.65,-16.6l-17.44 -2.04c-6.25,-0.77 -12.1,-1.57 -14.71,-2.11l-6.46 -1.33c-38.89,-7.96 -66.68,-13.65 -92.18,-45.91 -4.7,-4.13 -7.63,-6.8 -10.32,-9.24 -9.73,-8.85 -16.77,-15.25 -30.39,-23.62 -14.16,-8.69 -24.34,-22.68 -34.18,-36.18 -3.75,-5.14 -7.44,-10.21 -11.12,-14.54l-5.66 0.26c-20.75,0.99 -50.42,2.41 -56.51,-15.76 -9.07,-26.99 -3.87,-53.55 1.07,-78.83 1.68,-8.61 3.33,-17.06 4.21,-24.48 -2.08,-13.86 -2.59,-27.9 -1.5,-41.87 1.14,-14.54 4.04,-29.2 8.71,-43.68 8.65,-26.84 20.94,-52.73 36.09,-76.78 15.39,-24.43 33.76,-46.99 54.3,-66.74l0.94 -0.89c26.6,-37.98 61.34,-49.06 99.83,-61.34 15.74,-5.02 32.2,-10.27 49.13,-18.15l0.07 0c10.73,-4.99 22.01,-17.75 33.35,-30.56l3.96 -4.46c-122.7,50.14 -233.08,124.23 -325.31,216.46 -178.89,178.89 -289.54,426.04 -289.54,699.03 0,272.98 110.65,520.13 289.54,699.02 178.89,178.89 426.04,289.54 699.03,289.54 272.99,0 520.14,-110.65 699.03,-289.54 178.89,-178.89 289.54,-426.03 289.54,-699.02 0,-30.63 -1.4,-60.92 -4.13,-90.84zm-34.84 -4.97c2.07,-1.61 3.59,-3.72 3.72,-5.63 0.23,-3.31 -1.32,-6.41 -2.93,-9.62 -3.05,-5.98 -6.15,-12.16 -6.9,-21.94l-0.52 -6.79 4.57 -5.22c2,-2.28 6.19,-7.73 8.66,-12.87 0.53,-1.11 1.72,0.96 1.43,-0.18 -6.2,-22.31 -8.43,-30.55 -10.93,-39.74 -29.38,-108.18 -58.49,-215.33 -122.8,-307.34l-1.06 -1.51 -0.67 -1.64c-2.86,-6.91 -14.59,-20.42 -27.25,-33.82l-4.62 -4.83 0.26 0.47 0.22 3.71c0.85,14.35 4.63,31.02 9.76,47.82 6.99,22.91 16.62,46.31 24.95,64.83 1.5,3.31 13.2,31.03 22.08,54.3 5.1,13.36 9.44,25.74 10.83,32.44l5.41 26.56c15.93,78.62 32.15,158.69 81.27,222.03 0.37,0.48 0.57,0.69 0.64,0.69 0.36,0.02 0.82,-0.06 1.3,-0.23 0.83,-0.29 1.72,-0.81 2.58,-1.47zm30.05 -37.48l-2.1 3.02c0.61,1.52 1.36,3 2.09,4.47l1.33 2.73 -1.32 -10.21zm-1043.52 -263.32c-12.6,-6.15 -29.07,-11.76 -45.66,-15.17 -14.24,-2.94 -28.27,-4.21 -39.43,-2.7 -17.7,2.39 -33.87,-3.16 -42.36,-10.34 -3.86,-3.27 -6.71,-7.2 -8.28,-11.47 -2.22,-6.08 -1.9,-12.29 1.45,-18.15 3.87,-6.81 11.87,-12.14 24.8,-13.9l2.1 -0.29c42.56,-5.76 78.77,-10.66 120.56,9.81l0.19 0.06c4.23,2.15 8.43,5.42 12.35,9.42 7.54,7.67 14.92,18.87 19.63,29.49 5.78,13.05 7.84,26.73 2.98,36.36l0 0.07c-1.12,2.2 -2.6,4.23 -4.47,6.07 -10.98,10.8 -20.64,7.72 -30.03,-1.84 -2.61,-2.66 -5.06,-6.02 -7.63,-9.54l-0.06 0c-2.61,-3.59 -5.45,-7.49 -6.15,-7.87zm186.76 55.52c-10.6,-0.16 -20.73,-1.16 -30.55,-2.6 -10.02,-1.48 -19.51,-3.32 -28.89,-5.19l-2.09 -0.56c-8.38,-2.31 -21.31,-10.25 -31.32,-19.07 -12.3,-10.81 -21.64,-24.65 -19.26,-36.64l0.41 -1.46c5.13,-18.67 22.96,-18.56 42.29,-13.26 6.59,1.81 12.34,3.78 17.46,5.53 4.89,1.67 9.2,3.15 11.21,3.55l0.06 0c6.24,1.24 13.56,3.58 21.14,6 10.05,3.23 20.7,6.63 27.61,6.73 0.85,0.01 7.42,-4.49 13.17,-8.42 7.27,-4.98 13.8,-9.45 20.68,-10.38 11.79,-1.61 19.35,2.91 21.14,16.17 0.14,1.04 0.2,2.17 0.18,3.38 -0.16,10.81 -9.68,24.79 -21.77,35.66 -11.2,10.09 -25.61,18.78 -36.91,20.29l-0.13 0c-1.46,0.18 -2.94,0.28 -4.42,0.26zm-79.91 -57.65c-0.04,0.33 0.2,0.59 0.66,0.86 -0.01,-1.81 -0.11,-2.64 -0.66,-0.86zm612.46 574.02c7.06,-8.71 14.16,-17.48 16.25,-26.99 4.48,-20.41 -7.2,-38.3 -24.01,-53.05 -19.36,-16.98 -45.42,-30.03 -64.56,-38.84 -13.02,-5.98 -27.32,-11.22 -41.6,-16.45 -9.89,-3.64 -19.8,-7.27 -30.03,-11.46 -16.29,-6.67 -29.22,-16.59 -40.23,-28.34 -10.53,-11.24 -19.09,-23.88 -27.19,-36.89l-4.38 -7.12c-12.9,-20.86 -26.09,-42.2 -43.28,-58.11 -11.96,-11.07 -27.63,-14.36 -43.41,-17.68 -15.1,-3.17 -30.3,-6.36 -45.44,-15.31 -10.41,-6.15 -18.65,-14.12 -26.85,-22.03 -4.07,-3.93 -8.14,-7.86 -12.62,-11.52 -6.05,-4.96 -12.24,-9.36 -18.59,-13.06 -6.35,-3.7 -13.02,-6.82 -20.09,-9.22 -15.23,-5.2 -31.75,-6.71 -48.29,-8.22 -17.91,-1.63 -35.87,-3.27 -54.03,-9.12 -18.57,-5.97 -36,-10.21 -53.4,-11.53 -16.97,-1.3 -34.04,0.17 -52.3,5.48 -8.44,2.46 -17.1,5.57 -25.83,9 -9.78,3.85 -18.04,7.4 -26.1,10.89l0 0.07c-4.05,1.75 -6.82,3.11 -9.6,4.47 -20.48,10.07 -41.95,20.62 -65.63,2.4l-1.04 -0.67 -2.37 -0.81c-12.65,-4.94 -24.77,-10.36 -36.53,-16.09 -11.54,-5.62 -23.21,-11.8 -34.91,-18.24l-1.35 -0.83c-6.33,-4.35 -12.37,-8.74 -18.18,-13.12 -5.72,-4.32 -11.53,-8.87 -17.32,-13.49l-21.41 -17.09 25.14 -10.84c2.39,-1.03 5.69,-1.94 9.97,-3.13 6.42,-1.77 15.84,-4.37 26.07,-8.99 -5.7,0.28 -11.45,0.46 -16.99,0.23 -16.88,-0.68 -33.75,-3 -50.32,-6.79 -17.06,-3.89 -33.77,-9.29 -49.8,-15.99 -4.82,-2.01 -8.5,-3.61 -12.02,-6.46 -6.06,-4.88 -8.96,-10.6 -8.61,-19.14 0.26,-6.51 2.49,-12.8 6.01,-18.76 2.86,-4.85 6.64,-9.6 10.82,-14.09l1.54 -1.47c2.36,-1.95 6.79,-10.57 11.3,-19.63 -5.27,3.99 -10.96,8.86 -16.97,14.72l-0.45 0.38c-13.03,11.78 -24.15,19.66 -36.51,25.07 -8.42,3.69 -17.08,6.12 -26.96,7.76 6.54,5.47 14.18,12.88 22.22,20.68 13.99,13.56 29.38,28.48 40.7,34.41 18.9,9.9 29.46,18.63 40.27,27.56 8.83,7.3 17.86,14.77 31.86,22.75l0.9 0.52c13.64,7.79 27.28,15.58 42.15,23.74l1.35 0.83c32.42,22.26 51.52,38.42 60.38,61.8 8.72,23 5.99,49.84 -5.35,93.13 -3.94,15.01 0.1,25.24 4.42,36.14 5.1,12.9 10.47,26.51 9.32,47.71l0 0.06c-2,36.47 6.94,70.05 22.26,101.11 15.71,31.83 38.25,61.27 62.78,88.6 10.02,11.16 22.75,25.68 35.38,40.06 11.94,13.61 23.86,27.2 34.95,39.56 6.98,7.72 17.08,15.11 27.29,22.6 11.06,8.1 22.28,16.32 31.77,26.32l12.84 13.53 -15.02 11c-0.27,0.2 -0.5,0.43 -0.65,0.66 -0.27,0.43 -0.52,1.05 -0.72,1.87l-7.03 28.72c-21.15,86.27 -42.33,172.65 -53.38,260.26 -4.57,36.24 -10.13,72.09 -15.7,107.98l-3.63 23.52 0.05 0.01c-2.5,16.31 -4.5,32.85 -3.09,47.75 1.3,13.67 5.54,26.61 15.2,37.75l0.36 0.22c0.99,0.47 2.29,0.61 3.63,0.45 1.28,-0.16 2.44,-0.6 3.2,-1.26l0.23 -0.26c3.79,-7.82 6.54,-15.87 8.74,-24.13 2.35,-8.82 4.1,-17.72 5.82,-26.87l0.51 -2.12c29.07,-88.04 102.12,-129.93 176,-172.28 17.55,-10.06 35.17,-20.16 50.99,-30.14 27.38,-17.26 52.26,-37.55 75.84,-59.48 23.83,-22.16 46.43,-46.09 68.95,-70.3 10.19,-10.95 21.14,-21.85 32.08,-32.74 16.18,-16.1 32.38,-32.22 46.87,-49.57 19.87,-23.79 36.83,-50.5 53.75,-77.19l3.77 -5.94c8.87,-13.96 19.45,-29.76 30,-45.52 10.93,-16.31 21.86,-32.64 32.45,-49.51 5,-7.97 10.06,-15.98 15.56,-24.23 5.6,-8.39 11.33,-16.51 17.25,-24.03l4.56 -5.63zm-1065.95 -528.75c0.81,0.16 5.71,0.8 11.64,1.53 -1.92,-2.13 -3.76,-4.3 -5.51,-6.49 -2.85,-3.58 -5.61,-7.47 -8.23,-11.69 -15.3,-24.59 -19.98,-55.99 -16.15,-86.38 3.96,-31.35 17.1,-62.09 37.04,-83.35 28.19,-30.04 64.52,-31.48 100.48,-32.87 12.78,-0.51 25.54,-1 37.46,-3.08 5.91,-1.03 12.84,-3.37 19.98,-5.79 26.81,-9.06 55.92,-18.89 78.33,8.39 6.63,8.07 11.82,10.44 17.48,13l0.06 0c6.82,3.1 14.08,6.41 23.69,14.75 -2.02,-6.11 -3.65,-12.36 -4.44,-18.81 -1.31,-10.88 1.57,-19.98 6.53,-28.12 4.2,-6.82 9.27,-12.14 14.28,-17.36 4.55,-4.74 9.3,-9.52 14.02,-14.27 11.74,-11.82 23.37,-23.53 33.43,-36.39l10.63 -13.92 0.07 0c11.41,-15.02 22.86,-30.12 36.45,-43.55 34.65,-34.24 78.76,-49.38 122.98,-64.55 34.79,-11.93 69.67,-23.9 97.31,-44.93 2.12,-1.61 4,-3.99 4.63,-6.39 0.1,-0.37 0.12,-0.71 -0,-0.87 -12.97,-17.39 -31.31,-24.88 -50.5,-32.71l0 -0.06c-11.03,-4.5 -22.31,-9.12 -33.42,-15.45 -15.47,-8.82 -26.38,-20.9 -37.27,-32.96 -9.38,-10.45 -18.79,-20.87 -30.22,-27.03 -30.67,-16.54 -72.18,-10.82 -107.84,-5.91l-1.31 0.18c-16.33,2.25 -34.2,5.4 -52.08,8.56 -32.3,5.69 -64.61,11.4 -98.41,13.09 -15.7,0.79 -31.68,0.76 -47.6,0.74 -25.03,-0.03 -50,-0.07 -74.94,3.4 -13.25,1.84 -27.29,17.72 -41.21,33.45 -13.63,15.41 -27.19,30.74 -44.09,38.63 -17.92,8.37 -35.9,14.11 -53.1,19.59 -33.38,10.65 -63.45,20.24 -83.82,50.23l-1.04 1.54 -3.26 3.07c-18.58,17.88 -35.19,38.3 -49.1,60.38 -13.72,21.76 -24.82,45.15 -32.62,69.33 -3.83,11.88 -6.22,24.04 -7.17,36.24 -0.96,12.25 -0.46,24.41 1.46,36.25l0.34 2.1 -0.22 2.14c-1.02,10.14 -2.9,19.76 -4.82,29.58 -4.14,21.2 -8.5,43.47 -2.23,62.14 1.79,5.34 13.33,-6.08 23.9,-6.58 6.76,-0.32 12.41,-0.59 16.06,-0.21l5.77 0.61 4.12 4.08c6.72,6.65 12.71,14.88 18.83,23.28 7.9,10.85 16.1,22.1 24.8,27.45 16.44,10.09 24.39,17.33 35.4,27.35 3.77,3.43 7.86,7.15 11,9.9l2.18 2.31c18.34,23.76 41.37,28.48 73.78,35.11l6.47 1.33zm-311.76 -368.79c184.85,-184.85 440.21,-299.19 722.27,-299.19 282.06,0 537.42,114.34 722.27,299.18 184.85,184.85 299.18,440.22 299.18,722.27 0,282.05 -114.33,537.41 -299.18,722.26 -184.85,184.85 -440.21,299.18 -722.27,299.18 -282.05,0 -537.42,-114.33 -722.27,-299.18 -184.84,-184.84 -299.18,-440.2 -299.18,-722.26 0,-282.06 114.34,-537.43 299.18,-722.27z"/>
    <path class="fil1" d="M1765.95 1256.61c8.9,1.59 14.82,10.11 13.23,19 -1.59,8.9 -10.11,14.82 -19,13.23 -32.8,-5.93 -84.43,-19.74 -138.58,-35.71 -70.88,-20.9 -146.06,-45.41 -189.26,-60.83 -32.73,-11.68 -77.29,-31.53 -122.86,-53.28 -61.89,-29.54 -126.69,-63.21 -165.54,-84.41 -36.63,-19.98 -82,-42.64 -119.12,-57.55 -26.4,-10.6 -47.27,-17.17 -54.71,-15.39 -10.8,2.6 -12.49,26.63 -14.93,61.75l-1.21 16.89c-2.38,30.79 -4.94,101.71 0.33,184.15 3.38,52.94 10,110.66 21.99,165.53 6.17,28.22 11.34,45.26 17.51,65.58 3.31,10.91 6.88,22.64 9.65,32.38 2.48,8.72 -2.58,17.81 -11.3,20.29 -8.72,2.48 -17.81,-2.58 -20.29,-11.3 -4.23,-14.85 -6.91,-23.67 -9.4,-31.86 -6.56,-21.62 -12.08,-39.77 -18.27,-68.15 -12.33,-56.44 -19.15,-115.87 -22.63,-170.4 -5.39,-84.41 -2.77,-157.07 -0.33,-188.64l1.21 -16.63c3.44,-49.38 5.8,-83.17 40.1,-91.41 14.8,-3.55 42.38,3.91 74.48,16.8 38.21,15.35 84.91,38.66 122.58,59.22 37.65,20.54 101.48,53.66 164,83.51 44.69,21.34 88.2,40.73 119.78,52 43.36,15.48 117.94,39.82 187.45,60.32 53.44,15.76 103.94,29.32 135.11,34.95z"/>
    <path class="fil1" d="M930.41 987.78c-1.17,-8.97 5.15,-17.2 14.12,-18.37 8.97,-1.17 17.2,5.15 18.37,14.12 4.57,34.22 28.35,89.7 58.24,147.63 40.55,78.59 92.04,160.71 122.83,201.59 44.53,59.14 100.5,116.89 166.14,169.18 61.64,49.1 131.71,93.37 208.75,129.45 8.19,3.83 11.73,13.58 7.9,21.77 -3.83,8.19 -13.58,11.73 -21.77,7.9 -79.62,-37.28 -151.88,-82.91 -215.29,-133.43 -67.9,-54.09 -125.82,-113.87 -171.93,-175.1 -31.61,-41.97 -84.35,-126.06 -125.78,-206.34 -31.36,-60.79 -56.44,-119.95 -61.58,-158.41z"/>
    <path class="fil1" d="M1209.57 1418.21c9.04,-0.53 16.8,6.37 17.33,15.41 0.53,9.04 -6.37,16.8 -15.41,17.33 -14.82,0.88 -31.75,3.41 -50.68,7.49 -19.13,4.13 -40.28,9.86 -63.37,17.1 -24.7,7.74 -55.37,21.38 -86.36,41 -25.39,16.07 -50.98,36.17 -73.63,60.34 -12.95,13.81 -21.68,25.56 -27.3,35.15l6.12 -4c18.3,-11.91 38.72,-24.72 49.77,-31.38 12.98,-7.82 36.31,-17.18 52.95,-22.06 5.7,-1.67 10.87,-2.89 14.94,-3.45 10.74,-1.48 18.75,1.43 22.68,9.91 0.9,1.91 1.46,4.04 1.6,6.27 0.64,9.56 -5.4,15.72 -15,25.46 -9.1,9.24 -23.24,23.58 -36.45,44.53 -10.78,17.09 -18.48,37.65 -23.65,62.68 -5.37,26.01 -8.03,56.67 -8.53,93.01 -0.05,3.68 0.01,7.64 0.17,11.81 1.36,36.09 10.38,80.48 20.07,115.88 7.73,28.25 6.59,49.45 8.87,51.29 2.17,-1.41 4.7,-14.1 17.75,-39.41l10.98 -21.13c13.1,-25.07 25.61,-46.7 35.66,-61.28 13.73,-19.91 27.31,-29.51 39.27,-24.29 14.65,6.39 12.32,16.12 7.93,34.41 -5.34,22.22 -16.76,69.67 -3.83,146.85 9.35,55.81 23.07,106.43 37.03,149.09 14.09,43.06 28.26,77.64 38.59,101.48 10.94,25.25 31.39,63.47 48.86,93.2 -1.42,-35.95 -2.97,-85.27 0.55,-133.02 3.58,-48.7 13.06,-114.48 27.41,-178.47l0.16 -0.63c11.91,-52.99 27.16,-104.78 45.2,-144.79 19,-42.15 49.59,-93.57 81.68,-140.96 35.09,-51.81 72.15,-98.97 97.98,-124.09 6.49,-6.31 16.87,-6.17 23.18,0.32 6.31,6.49 6.17,16.87 -0.32,23.18 -24.43,23.76 -59.9,68.98 -93.74,118.96 -31,45.76 -60.52,95.4 -78.86,136.07 -17.17,38.09 -31.75,87.67 -43.17,138.5l-0.13 0.63c-13.94,62.17 -23.15,126.16 -26.64,173.59 -3.75,50.88 -1.61,103.53 -0.17,139.03 0.74,18.26 1.32,32.84 -0.3,43.03 0.37,6.01 -2.59,12 -8.15,15.23l-0.96 0.48c-9.91,4.97 -20.38,-1.45 -30.4,-15.88 -5.12,-7.36 -11.81,-18.01 -19.15,-30.37 -18.31,-30.83 -40.9,-72.9 -53.08,-101.03 -10.79,-24.92 -25.51,-60.78 -39.76,-104.31 -14.38,-43.93 -28.52,-96.13 -38.19,-153.84 -7.73,-46.15 -7.38,-82.66 -4.53,-110.19 -4.23,7.53 -8.63,15.67 -13.11,24.25l-10.85 21c-18.62,36.13 -28.09,54.49 -43.32,56.98 -1.09,0.23 -2.22,0.35 -3.38,0.35l-0.05 -0.07 -0.2 0c-11.11,-0.15 -28.57,-32.35 -40.41,-75.57 -10.23,-37.38 -19.76,-84.51 -21.23,-123.33 -0.17,-4.45 -0.23,-8.92 -0.16,-13.35 0.53,-38.49 3.38,-71.18 9.17,-99.18 5.98,-28.99 15.11,-53.13 28.02,-73.59 4.83,-7.66 9.7,-14.48 14.43,-20.56 -3.96,1.86 -7.54,3.73 -10.47,5.49 -11.63,7.02 -31.85,19.67 -48.87,30.74 -13.06,8.49 -24.49,16.18 -29.27,19.96 -6.42,5.07 -13.54,6.51 -20.27,4.53 -6.62,-1.99 -11.66,-6.74 -14.23,-14.01 -1.5,-4.25 -2.1,-9.58 -1.41,-15.71 1.76,-15.74 13.25,-42.44 44.62,-75.88 24.63,-26.27 52.45,-48.12 80.06,-65.6 33.64,-21.3 67.07,-36.14 94.07,-44.6 23.96,-7.51 46.09,-13.5 66.32,-17.87 20.42,-4.4 38.97,-7.15 55.57,-8.13zm-115.33 437.73c-0.86,-0.38 -1.3,-0.43 -1.44,-0.23 4.01,1.49 6.7,2.52 1.44,0.23z"/>
    <path class="fil1" d="M3110.07 1283.47c-8.9,1.59 -17.41,-4.33 -19,-13.23 -1.59,-8.9 4.33,-17.41 13.23,-19 31.18,-5.63 81.67,-19.19 135.11,-34.95 69.51,-20.5 144.1,-44.84 187.46,-60.32 31.58,-11.27 75.09,-30.67 119.78,-52 62.52,-29.85 126.34,-62.96 163.99,-83.5 37.68,-20.56 84.37,-43.87 122.58,-59.22 32.1,-12.89 59.68,-20.36 74.48,-16.8 34.3,8.24 36.67,42.04 40.1,91.41l1.21 16.63c2.45,31.57 5.06,104.24 -0.33,188.64 -3.48,54.53 -10.3,113.96 -22.63,170.4 -6.2,28.38 -11.71,46.52 -18.28,68.15 -2.48,8.19 -5.17,17.01 -9.4,31.86 -2.48,8.72 -11.57,13.78 -20.29,11.3 -8.72,-2.48 -13.78,-11.57 -11.3,-20.29 2.77,-9.74 6.34,-21.46 9.65,-32.37 6.16,-20.31 11.34,-37.36 17.51,-65.58 11.99,-54.86 18.61,-112.59 21.99,-165.53 5.26,-82.44 2.71,-153.36 0.33,-184.15l-1.21 -16.89c-2.44,-35.11 -4.12,-59.15 -14.93,-61.75 -7.44,-1.78 -28.31,4.79 -54.71,15.39 -37.11,14.9 -82.49,37.56 -119.12,57.55 -38.85,21.2 -103.65,54.86 -165.54,84.41 -45.57,21.76 -90.14,41.61 -122.86,53.28 -43.2,15.42 -118.38,39.93 -189.26,60.83 -54.14,15.97 -105.78,29.79 -138.58,35.71z"/>
    <path class="fil1" d="M3907.34 978.16c1.17,-8.97 9.4,-15.3 18.37,-14.12 8.97,1.17 15.3,9.4 14.13,18.37 -5.14,38.47 -30.22,97.63 -61.58,158.42 -41.43,80.28 -94.17,164.37 -125.78,206.34 -46.11,61.23 -104.03,121.01 -171.93,175.1 -63.41,50.51 -135.67,96.14 -215.29,133.43 -8.19,3.83 -17.94,0.29 -21.77,-7.9 -3.83,-8.19 -0.29,-17.94 7.9,-21.77 77.04,-36.08 147.12,-80.35 208.75,-129.45 65.64,-52.3 121.61,-110.05 166.14,-169.18 30.79,-40.88 82.27,-123.01 122.82,-201.6 29.89,-57.93 53.67,-113.41 58.24,-147.63z"/>
    <path class="fil1" d="M3658.75 1445.58c-9.04,-0.53 -15.94,-8.3 -15.41,-17.33 0.53,-9.04 8.3,-15.94 17.33,-15.41 16.6,0.98 35.15,3.73 55.57,8.13 20.23,4.36 42.36,10.35 66.32,17.87 27,8.46 60.43,23.3 94.07,44.6 27.61,17.48 55.43,39.33 80.06,65.6 31.37,33.44 42.85,60.14 44.62,75.88 0.69,6.13 0.09,11.46 -1.41,15.71 -2.57,7.27 -7.61,12.03 -14.24,13.98 -6.72,2.01 -13.84,0.58 -20.25,-4.49 -4.78,-3.79 -16.21,-11.48 -29.27,-19.96 -17.02,-11.07 -37.23,-23.72 -48.87,-30.74 -2.92,-1.76 -6.5,-3.62 -10.47,-5.49 4.73,6.08 9.61,12.9 14.44,20.56 12.91,20.47 22.03,44.6 28.02,73.59 5.79,28 8.64,60.68 9.17,99.18 0.06,4.44 0,8.91 -0.16,13.35 -1.46,38.83 -10.99,85.95 -21.23,123.33 -11.83,43.22 -29.29,75.42 -40.41,75.57l-0.19 0 0 0.07c-1.21,0 -2.34,-0.12 -3.43,-0.35 -15.23,-2.5 -24.7,-20.85 -43.32,-56.98l-10.85 -21c-4.48,-8.58 -8.88,-16.72 -13.11,-24.25 2.85,27.53 3.2,64.04 -4.54,110.19 -9.67,57.71 -23.8,109.91 -38.19,153.84 -14.25,43.53 -28.97,79.39 -39.76,104.31 -12.18,28.13 -34.77,70.2 -53.08,101.03 -7.34,12.36 -14.03,23.01 -19.14,30.37 -10.02,14.43 -20.49,20.85 -30.4,15.87l-0.96 -0.48c-5.56,-3.22 -8.52,-9.22 -8.15,-15.23 -1.63,-10.19 -1.04,-24.77 -0.3,-43.03 1.44,-35.49 3.58,-88.15 -0.17,-139.03 -3.49,-47.44 -12.71,-111.42 -26.64,-173.59l-0.13 -0.63c-11.42,-50.83 -26,-100.41 -43.17,-138.5 -18.34,-40.67 -47.86,-90.31 -78.86,-136.07 -33.85,-49.97 -69.32,-95.2 -93.74,-118.96 -6.49,-6.31 -6.63,-16.69 -0.32,-23.18 6.31,-6.49 16.69,-6.63 23.18,-0.32 25.82,25.12 62.88,72.28 97.97,124.09 32.1,47.39 62.68,98.8 81.69,140.96 18.04,40.01 33.29,91.8 45.2,144.79l0.16 0.63c14.35,64 23.83,129.78 27.41,178.47 3.52,47.75 1.97,97.08 0.55,133.02 17.47,-29.73 37.92,-67.95 48.86,-93.2 10.33,-23.85 24.5,-58.43 38.59,-101.48 13.96,-42.66 27.68,-93.28 37.03,-149.09 12.93,-77.19 1.52,-124.64 -3.82,-146.85 -4.39,-18.29 -6.73,-28.02 7.93,-34.41 11.96,-5.22 25.55,4.38 39.27,24.29 10.05,14.57 22.56,36.2 35.66,61.28l10.98 21.13c13.04,25.31 15.58,38.01 17.75,39.41 2.28,-1.85 1.14,-23.05 8.87,-51.29 9.69,-35.41 18.71,-79.8 20.07,-115.89 0.16,-4.17 0.21,-8.13 0.16,-11.81 -0.5,-36.34 -3.15,-67.01 -8.53,-93.01 -5.16,-25.03 -12.87,-45.6 -23.65,-62.68 -13.21,-20.95 -27.35,-35.29 -36.45,-44.53 -9.6,-9.74 -15.64,-15.9 -15.02,-25.46 0.15,-2.23 0.71,-4.36 1.61,-6.27 3.92,-8.48 11.94,-11.38 22.68,-9.91 4.07,0.55 9.24,1.78 14.94,3.45 16.64,4.88 39.97,14.24 52.95,22.06 11.05,6.66 31.47,19.47 49.77,31.38l6.12 4c-5.62,-9.59 -14.35,-21.34 -27.3,-35.15 -22.66,-24.17 -48.25,-44.27 -73.63,-60.34 -31,-19.62 -61.67,-33.26 -86.36,-41 -23.09,-7.24 -44.24,-12.98 -63.37,-17.1 -18.93,-4.08 -35.86,-6.61 -50.68,-7.49zm118.7 404.75c-0.15,-0.2 -0.58,-0.14 -1.44,0.23 -5.26,2.29 -2.57,1.26 1.44,-0.23z"/>
    <path class="fil1" d="M879.54 2583.82c6.21,16.19 10.43,33.79 14.65,51.38 7.52,31.4 15.06,62.8 35.48,83.23 20.42,20.42 51.83,27.96 83.22,35.48 17.59,4.21 35.2,8.44 51.38,14.64 8.48,3.22 12.73,12.72 9.5,21.19 -1.73,4.56 -5.28,7.89 -9.5,9.5 -16.19,6.21 -33.79,10.43 -51.38,14.65 -31.39,7.52 -62.8,15.06 -83.22,35.48 -20.43,20.43 -27.96,51.83 -35.48,83.22 -4.21,17.59 -8.44,35.2 -14.65,51.38 -3.22,8.47 -12.72,12.73 -21.19,9.5 -4.56,-1.73 -7.89,-5.28 -9.5,-9.5 -6.21,-16.19 -10.44,-33.79 -14.65,-51.38 -7.52,-31.39 -15.06,-62.79 -35.48,-83.22 -20.43,-20.43 -51.83,-27.96 -83.22,-35.48 -17.59,-4.21 -35.2,-8.44 -51.38,-14.65 -8.48,-3.22 -12.73,-12.72 -9.5,-21.19 1.73,-4.56 5.28,-7.89 9.5,-9.5 16.19,-6.21 33.79,-10.43 51.38,-14.65 31.39,-7.52 62.8,-15.06 83.22,-35.48 20.43,-20.43 27.96,-51.83 35.48,-83.23 4.21,-17.59 8.44,-35.19 14.64,-51.38 3.22,-8.47 12.72,-12.73 21.19,-9.5 4.56,1.73 7.89,5.28 9.5,9.5zm26.89 157.85c-24.9,-24.9 -34.13,-57.75 -42.23,-91.16 -8.1,33.41 -17.34,66.27 -42.23,91.16 -24.9,24.9 -57.75,34.13 -91.16,42.23 33.41,8.11 66.27,17.34 91.16,42.23 24.9,24.9 34.13,57.76 42.23,91.17 8.11,-33.41 17.34,-66.27 42.23,-91.17 24.9,-24.9 57.75,-34.13 91.16,-42.23 -33.41,-8.11 -66.27,-17.34 -91.16,-42.23z"/>
    <path class="fil1" d="M4153.7 2000.96c2.01,9.24 2.49,18.48 2.95,27.7 0.71,14.12 1.42,28.24 8.48,35.3 7.06,7.06 21.18,7.77 35.29,8.48 9.33,0.46 18.67,0.94 28.02,3.02 8.83,1.95 14.41,10.69 12.46,19.52 -1.44,6.53 -6.61,11.29 -12.77,12.52 -9.24,2.01 -18.48,2.49 -27.7,2.95 -14.11,0.7 -28.23,1.42 -35.29,8.48 -7.06,7.06 -7.78,21.19 -8.48,35.3 -0.46,9.32 -0.94,18.66 -3.01,28.01 -1.95,8.83 -10.69,14.41 -19.52,12.46 -6.53,-1.44 -11.28,-6.61 -12.52,-12.77 -2.01,-9.24 -2.49,-18.48 -2.95,-27.7 -0.71,-14.12 -1.43,-28.26 -8.45,-35.33 -7.07,-7.02 -21.2,-7.74 -35.33,-8.45 -9.33,-0.46 -18.67,-0.94 -28.02,-3.02 -8.83,-1.95 -14.41,-10.69 -12.46,-19.52 1.44,-6.53 6.61,-11.29 12.77,-12.52 9.24,-2.01 18.48,-2.49 27.7,-2.95 14.12,-0.71 28.26,-1.43 35.33,-8.45 7.02,-7.07 7.74,-21.2 8.45,-35.33 0.46,-9.33 0.94,-18.67 3.01,-28.02 1.95,-8.83 10.69,-14.41 19.52,-12.46 6.53,1.44 11.28,6.61 12.52,12.77zm-11.81 86.24c-1.56,-1.56 -2.98,-3.17 -4.27,-4.82 -1.28,1.63 -2.68,3.21 -4.22,4.76l-0.06 0.06c-1.55,1.55 -3.15,2.96 -4.79,4.24 1.64,1.28 3.23,2.69 4.79,4.24l0.06 0.06c1.54,1.54 2.94,3.13 4.22,4.76 1.29,-1.65 2.71,-3.25 4.27,-4.82 1.55,-1.55 3.15,-2.96 4.78,-4.24 -1.64,-1.28 -3.23,-2.69 -4.78,-4.24z"/>
    <path class="fil1" d="M675.59 1641.71c2.01,9.24 2.49,18.48 2.95,27.7 0.71,14.12 1.43,28.26 8.45,35.33 7.07,7.02 21.2,7.74 35.33,8.45 9.33,0.46 18.67,0.94 28.02,3.01 8.83,1.95 14.41,10.69 12.46,19.52 -1.44,6.53 -6.61,11.28 -12.77,12.52 -9.24,2.02 -18.48,2.49 -27.7,2.95 -14.12,0.71 -28.26,1.43 -35.33,8.45 -7.02,7.07 -7.74,21.2 -8.45,35.33 -0.46,9.33 -0.94,18.67 -3.01,28.02 -1.95,8.83 -10.69,14.41 -19.52,12.46 -6.53,-1.44 -11.28,-6.61 -12.52,-12.77 -2.02,-9.24 -2.49,-18.48 -2.95,-27.7 -0.71,-14.12 -1.43,-28.26 -8.45,-35.33 -7.07,-7.02 -21.2,-7.74 -35.33,-8.45 -9.33,-0.46 -18.67,-0.94 -28.02,-3.01 -8.83,-1.95 -14.41,-10.69 -12.46,-19.52 1.44,-6.53 6.61,-11.28 12.77,-12.52 9.24,-2.01 18.48,-2.49 27.7,-2.95 14.12,-0.71 28.26,-1.43 35.33,-8.45 7.02,-7.07 7.74,-21.2 8.45,-35.33 0.46,-9.33 0.94,-18.67 3.02,-28.02 1.95,-8.83 10.69,-14.41 19.52,-12.46 6.53,1.44 11.28,6.61 12.52,12.77zm-11.81 86.17c-1.55,-1.55 -2.96,-3.15 -4.24,-4.79 -1.28,1.63 -2.69,3.23 -4.24,4.79l-0.06 0.06c-1.55,1.55 -3.15,2.96 -4.79,4.24 1.64,1.28 3.23,2.69 4.79,4.24l0.06 0.06c1.55,1.55 2.96,3.15 4.24,4.79 1.28,-1.64 2.69,-3.23 4.24,-4.79l0.06 -0.06c1.55,-1.55 3.15,-2.96 4.79,-4.24 -1.64,-1.28 -3.23,-2.69 -4.79,-4.24l-0.06 -0.06z"/>
    <path class="fil1" d="M2877.89 651.49c6.21,16.19 10.43,33.79 14.65,51.38 7.52,31.39 15.06,62.8 35.48,83.22 20.43,20.43 51.84,27.96 83.22,35.48 17.59,4.21 35.2,8.44 51.38,14.64 8.48,3.22 12.73,12.72 9.5,21.19 -1.73,4.56 -5.28,7.89 -9.5,9.5 -16.19,6.21 -33.79,10.44 -51.38,14.65 -31.38,7.52 -62.79,15.06 -83.22,35.48 -20.43,20.42 -27.96,51.83 -35.48,83.22 -4.21,17.59 -8.44,35.2 -14.65,51.38 -3.22,8.48 -12.72,12.73 -21.19,9.5 -4.56,-1.73 -7.89,-5.28 -9.5,-9.5 -6.21,-16.19 -10.44,-33.79 -14.65,-51.38 -7.52,-31.39 -15.06,-62.8 -35.48,-83.22 -20.43,-20.43 -51.83,-27.96 -83.22,-35.48 -17.59,-4.21 -35.2,-8.44 -51.38,-14.65 -8.48,-3.22 -12.73,-12.72 -9.5,-21.19 1.73,-4.56 5.28,-7.89 9.5,-9.5 16.19,-6.21 33.79,-10.44 51.38,-14.65 31.39,-7.52 62.8,-15.06 83.22,-35.48 20.43,-20.43 27.96,-51.83 35.48,-83.22 4.21,-17.59 8.44,-35.2 14.65,-51.38 3.22,-8.48 12.72,-12.73 21.19,-9.51 4.56,1.73 7.89,5.28 9.5,9.51zm26.89 157.84c-24.9,-24.9 -34.13,-57.75 -42.23,-91.16 -8.11,33.41 -17.34,66.27 -42.24,91.16 -24.9,24.9 -57.75,34.13 -91.16,42.23 33.41,8.11 66.27,17.34 91.16,42.23 24.9,24.9 34.13,57.75 42.24,91.16 8.1,-33.41 17.34,-66.27 42.23,-91.16 24.9,-24.9 57.75,-34.13 91.17,-42.23 -33.41,-8.1 -66.27,-17.34 -91.17,-42.23z"/>
    <path class="fil1" d="M3760.92 2840.75c2.01,9.24 2.49,18.48 2.95,27.7 0.71,14.12 1.43,28.26 8.45,35.33 7.07,7.02 21.2,7.74 35.33,8.45 9.33,0.46 18.67,0.94 28.02,3.01 8.83,1.95 14.41,10.69 12.45,19.52 -1.44,6.53 -6.6,11.28 -12.77,12.52 -9.24,2.02 -18.48,2.49 -27.7,2.95 -14.13,0.71 -28.26,1.43 -35.33,8.45 -7.02,7.07 -7.74,21.2 -8.45,35.33 -0.46,9.33 -0.94,18.67 -3.02,28.02 -1.95,8.83 -10.69,14.41 -19.52,12.46 -6.53,-1.44 -11.28,-6.61 -12.52,-12.77 -2.01,-9.24 -2.49,-18.48 -2.95,-27.7 -0.71,-14.12 -1.43,-28.26 -8.45,-35.33 -7.07,-7.02 -21.2,-7.74 -35.33,-8.45 -9.33,-0.46 -18.67,-0.94 -28.02,-3.01 -8.83,-1.95 -14.41,-10.69 -12.46,-19.52 1.44,-6.53 6.61,-11.28 12.77,-12.52 9.24,-2.01 18.48,-2.49 27.7,-2.95 14.12,-0.71 28.26,-1.43 35.33,-8.45 7.02,-7.07 7.74,-21.2 8.45,-35.33 0.46,-9.33 0.94,-18.67 3.01,-28.02 1.95,-8.83 10.69,-14.41 19.52,-12.46 6.53,1.44 11.29,6.61 12.52,12.77zm-11.81 86.17c-1.55,-1.55 -2.96,-3.15 -4.24,-4.79 -1.28,1.63 -2.69,3.23 -4.24,4.79l-0.06 0.06c-1.55,1.55 -3.15,2.96 -4.79,4.24 1.64,1.28 3.23,2.69 4.79,4.24l0.06 0.06c1.55,1.55 2.96,3.15 4.24,4.79 1.28,-1.64 2.69,-3.23 4.24,-4.79l0.06 -0.06c1.55,-1.55 3.15,-2.96 4.79,-4.24 -1.64,-1.28 -3.23,-2.69 -4.79,-4.24l-0.06 -0.06z"/>
    <path class="fil1" d="M1029.54 2466.81c12.44,0 23.75,5.08 31.98,13.29l0.06 0.06c8.21,8.23 13.29,19.55 13.29,31.99 0,12.51 -5.08,23.85 -13.29,32.05 -8.2,8.2 -19.54,13.28 -32.05,13.28 -12.47,0 -23.78,-5.08 -31.99,-13.28l-0.06 -0.06c-8.2,-8.21 -13.28,-19.52 -13.28,-31.99 0,-12.51 5.08,-23.85 13.28,-32.05 8.21,-8.21 19.54,-13.29 32.06,-13.29zm8.81 36.46c-2.21,-2.21 -5.33,-3.58 -8.81,-3.58 -3.45,0 -6.57,1.4 -8.82,3.65 -2.25,2.25 -3.64,5.36 -3.64,8.81 0,3.47 1.38,6.6 3.61,8.84 2.24,2.23 5.37,3.61 8.84,3.61 3.45,0 6.56,-1.39 8.81,-3.64 2.25,-2.25 3.65,-5.37 3.65,-8.81 0,-3.49 -1.37,-6.6 -3.58,-8.81l-0.06 -0.06z"/>
    <path class="fil1" d="M3863.47 3087.96c12.44,0 23.75,5.08 31.99,13.29l0.06 0.06c8.21,8.23 13.29,19.55 13.29,31.99 0,12.51 -5.08,23.85 -13.29,32.05 -8.2,8.2 -19.54,13.28 -32.05,13.28 -12.47,0 -23.78,-5.08 -31.99,-13.28l-0.06 -0.06c-8.2,-8.21 -13.28,-19.52 -13.28,-31.99 0,-12.51 5.08,-23.85 13.28,-32.05 8.21,-8.21 19.54,-13.29 32.06,-13.29zm8.81 36.46c-2.21,-2.21 -5.32,-3.58 -8.81,-3.58 -3.45,0 -6.57,1.4 -8.82,3.65 -2.25,2.25 -3.64,5.36 -3.64,8.81 0,3.47 1.38,6.6 3.61,8.84 2.24,2.23 5.37,3.61 8.84,3.61 3.45,0 6.56,-1.39 8.81,-3.64 2.25,-2.25 3.65,-5.37 3.65,-8.81 0,-3.49 -1.37,-6.6 -3.58,-8.81l-0.06 -0.06z"/>
    <path class="fil1" d="M1555.11 736.32c18.71,0 35.67,7.59 47.94,19.86 12.27,12.27 19.86,29.22 19.86,47.94 0,18.71 -7.59,35.67 -19.86,47.94 -12.27,12.27 -29.23,19.86 -47.94,19.86 -18.72,0 -35.67,-7.59 -47.94,-19.86 -12.27,-12.27 -19.86,-29.23 -19.86,-47.94 0,-18.72 7.59,-35.67 19.86,-47.94 12.27,-12.27 29.22,-19.86 47.94,-19.86zm24.7 43.1c-6.32,-6.31 -15.05,-10.22 -24.7,-10.22 -9.65,0 -18.39,3.91 -24.7,10.22 -6.31,6.31 -10.22,15.05 -10.22,24.7 0,9.65 3.91,18.39 10.22,24.7 6.32,6.32 15.05,10.22 24.7,10.22 9.65,0 18.39,-3.91 24.7,-10.22 6.31,-6.31 10.22,-15.05 10.22,-24.7 0,-9.65 -3.91,-18.39 -10.22,-24.7z"/>
    <path class="fil3" d="M2387.39 4113.96l-109.1 -0.75c-1.03,0.02 -2.06,-0.45 -2.72,-1.32 -1.12,-1.47 -0.84,-3.59 0.64,-4.72 29.55,-22.64 29.47,-28.6 29.02,-60.19 -0.11,-7.97 -0.25,-17.55 0.02,-29.28 -0.22,-28.13 -0.18,-56.32 -0.13,-84.47l0.04 -35.51c-0.02,-27.03 0.99,-51.56 1.86,-73.29 2.84,-70.17 4.48,-110.51 -33.33,-127.95 -1.1,-0.51 -1.89,-1.6 -1.95,-2.9 -0.09,-1.86 1.35,-3.44 3.2,-3.52 27.51,-1.38 61.28,-1.27 94.45,-1.16 19.91,0.06 39.65,0.14 57.68,-0.12 59.63,-0.85 103.31,20.79 128.19,51.15 12.07,14.75 19.74,31.57 22.65,48.86 2.92,17.32 1.07,35.17 -5.84,51.95 -12.43,30.17 -41.28,56.85 -88.33,70.83 3.4,7.67 12.06,24.75 23.98,47.43 14.03,26.66 32.59,61.07 52.5,97.12 7.42,13.43 23.91,38.9 48.4,64.55l0.2 0.19c16.25,17 36.04,34.1 59.02,47.81 26.11,15.59 58.33,24.84 91.37,29.4 39.88,5.5 80.95,4.14 114.08,-1.16 1.2,-0.25 2.5,0.18 3.31,1.2 1.16,1.45 0.91,3.58 -0.54,4.73l-13.43 10.83c-23.12,18.75 -44.73,36.29 -66.67,45.34 -14.89,6.14 -36.26,10.62 -62.79,8.04 -20.29,-1.97 -43.65,-8.09 -69.46,-20.74 -50.94,-24.97 -88.17,-94.59 -126.8,-166.86 -6.36,-11.91 -12.8,-23.95 -19.82,-36.71 -24.92,-45.36 -42.86,-89.47 -52.1,-112.2 -3.04,-7.47 -4.37,-12.11 -5,-13.59 -14.49,1.49 -39.76,4.86 -62.53,9.3 -14.88,2.9 -28.62,6.26 -37.33,9.8 -0.37,19.92 -0.28,40.51 -0.19,61.16 0.06,13.58 0.13,27.21 0.06,40.68l-0.11 11.87c-0.43,36.48 -0.46,40.24 29.24,57.95 0.98,0.59 1.64,1.67 1.63,2.9 -0.01,1.86 -1.52,3.36 -3.38,3.35zm-27.08 -196.88c15.51,-3.19 30.71,-5.42 45.2,-7.53 63.52,-9.28 113.4,-16.57 115.94,-98.86 1.63,-53.31 -14.91,-80.5 -43.7,-94.24l-0.25 -0.14c-28.66,-13.58 -69.73,-14.42 -117.1,-14.36l-0.08 215.12z"/>
    <path class="fil3" d="M1973.52 3907.13c16.18,-56.85 61.94,-106.7 137.02,-115.7 70.5,-8.45 116.82,19.27 140.66,61.04 10.18,17.85 16.22,38.27 18.26,59.51 2.02,21.17 0.07,43.21 -5.72,64.32 -15.87,57.81 -60.53,109 -131.11,118.31 -72.18,9.52 -120.74,-19.31 -145.81,-62.61 -10.48,-18.1 -16.82,-38.77 -19.03,-60.19 -2.2,-21.37 -0.29,-43.54 5.74,-64.69zm156.22 -99c-32.06,1.16 -57.97,14.27 -76.54,36.91 -19.09,23.27 -30.58,56.68 -33.21,97.63 -0.25,3.91 -0.42,7.79 -0.46,11.55 -0.41,30.21 5.22,60.58 19.22,83.84 13.8,22.93 35.87,38.98 68.46,41.07l5.78 0.23c48.03,0.65 80.76,-38.88 95.76,-87.89 5.96,-19.51 9.14,-40.51 9.35,-61.08 0.22,-20.54 -2.5,-40.7 -8.3,-58.54 -12.28,-37.8 -38.53,-65.21 -80.06,-63.72z"/>
    <path class="fil3" d="M2963.29 3817.75l-22.96 9.33c-1.75,0.6 -3.67,-0.35 -4.27,-2.1l-0.1 -0.37c-6.2,-21.36 -8.7,-43.32 -4.42,-62.52 3.72,-16.66 12.52,-31.24 28.33,-41.55 19.75,-12.88 40.54,-16.66 60.04,-15.09 25.17,2.03 48.22,13.04 64.21,24.94 27.12,20.18 40.69,64.23 54.06,107.7 16.91,54.95 33.56,108.98 76.04,108.31 1.86,-0.02 3.39,1.45 3.42,3.31 0.02,1.41 -0.83,2.64 -2.06,3.16 -20.31,9.96 -33.31,15.45 -44.52,16.83 -11.6,1.43 -21.04,-1.44 -34.05,-8.22l-15.61 -12.55 -0.96 -1.02c-9.72,36.41 -42.54,62.23 -79.42,73.04 -16.23,4.76 -33.27,6.62 -49.44,5.19 -16.3,-1.43 -31.82,-6.2 -44.87,-14.68 -23.39,-15.19 -38.77,-42.13 -36.73,-82.93 0.84,-16.7 4.3,-30.46 10.45,-43.08 6.12,-12.56 14.89,-23.95 26.38,-35.98 6.13,-6.43 16,-13.54 27.9,-20.58 12.7,-7.51 27.86,-15.05 43.38,-21.71 13.87,-5.94 27.3,-10.36 37.18,-13.59l7.96 -2.65c-1.11,-3.51 -2.32,-6.89 -3.62,-10.12 -9.12,-22.66 -22.45,-37.16 -36.4,-45.09 -13.71,-7.8 -28.05,-9.26 -39.5,-5.93l-3.56 1.24c-2.81,1.12 -5.55,2.51 -8.1,4.11 -8.43,5.29 -15.31,13.15 -18.6,23.28 -3.32,10.25 -3.03,22.92 2.94,37.74 2.13,5.31 4.98,10.87 8.59,16.63 0.98,1.57 0.5,3.64 -1.07,4.62l-0.65 0.33zm145.65 97.94l-37.04 -101.78c-18.24,2.67 -35.81,7.44 -51.5,14.23 -20.73,8.97 -38.26,21.47 -49.78,37.25 -11.39,15.6 -16.95,34.55 -13.99,56.62 1.27,9.43 4.09,19.45 8.65,30 14.7,34 35.55,47.14 56.76,47.85 10.11,0.33 20.4,-2.11 30.18,-6.42 9.89,-4.37 19.28,-10.68 27.5,-17.95 21.32,-18.89 34.88,-44.22 29.22,-59.79z"/>
    <path class="fil3" d="M1669.36 3869.74c4.57,0.68 9.76,1.43 12.81,1.04 0.82,-0.1 1.68,0.09 2.4,0.61 1.5,1.08 1.84,3.19 0.76,4.69 -30.03,41.86 -76.42,52.22 -120.63,41.28 -19.08,-4.73 -37.78,-13.45 -54.54,-25.32 -16.75,-11.86 -31.61,-26.92 -43.03,-44.27 -28.97,-44.04 -36.02,-103.01 3.38,-163.37 34.96,-53.56 92.91,-72.58 146.36,-66.61 21.32,2.37 41.95,8.74 60.11,18.47 18.22,9.75 34.02,22.93 45.56,38.87 23.48,32.4 29.57,76.15 3.63,126.06l-0.18 0.35c-0.91,1.62 -2.97,2.2 -4.59,1.29 -92.15,-51.67 -155.68,-56.46 -192.32,-40.02 -15.71,7.04 -26.42,18.05 -32.19,30.87 -5.77,12.81 -6.66,27.52 -2.8,41.97 7.56,28.27 33.31,55.55 76.36,66.3 22.66,3.43 39.36,0.42 52.94,-5.91 13.71,-6.38 24.49,-16.23 35.06,-26.25 0.59,-0.56 1.38,-0.91 2.26,-0.92 2.21,-0.04 5.28,0.42 8.64,0.9zm-166.89 -125.58c59.88,-37.91 130.65,-7.58 168.53,8.66 6.84,2.94 12.61,5.41 16.91,6.87 5.66,-7.77 8.65,-19.11 8.77,-31.71 0.11,-11.75 -2.28,-24.59 -7.29,-36.65 -5,-12.02 -12.62,-23.31 -22.98,-32.06 -12.38,-10.44 -28.76,-17.3 -49.31,-17.49 -25.19,-0.24 -48.84,12.07 -68.53,30.67 -20.59,19.44 -36.84,45.69 -46.1,71.71z"/>
    <path class="fil3" d="M1722.48 3908.91l102.59 -281.86c11.82,-32.46 7.16,-39.58 -5.7,-58.56l-3.07 -4.52c-0.57,-0.87 -0.75,-1.99 -0.36,-3.04 0.63,-1.74 2.57,-2.64 4.31,-2.01l103.88 38.02c0.97,0.35 1.77,1.14 2.08,2.2 0.53,1.78 -0.49,3.67 -2.26,4.19l-8.6 2.44c-17.37,4.81 -22.3,6.18 -34.57,33.97l-79.55 218.57 114.11 -62.02c6.97,-4.06 15.01,-8.29 21.98,-11.94l6.7 -3.65c8.2,-4.65 14.48,-9.18 15.87,-14.05 1.27,-4.54 -1.92,-10.18 -12.3,-17.79 -1.19,-0.88 -1.7,-2.46 -1.16,-3.91 0.65,-1.74 2.6,-2.61 4.34,-1.96l68.01 25.76c1.47,0.49 2.46,1.95 2.29,3.56 -0.19,1.84 -1.86,3.18 -3.71,2.99 -24.5,-2.64 -38.23,5.2 -53.3,13.81 -5.4,3.08 -10.97,6.26 -17.25,9.13 -17.05,9.27 -34.32,18.38 -51.2,27.95 -1.23,19.66 5.9,67.1 15.43,113.56 9.92,48.44 22.41,95.63 30.61,108.9 0.53,0.85 0.69,1.93 0.32,2.94 -0.63,1.74 -2.57,2.64 -4.31,2.02l-88.44 -32.3c-1.35,-0.45 -2.3,-1.75 -2.28,-3.24 0.02,-1.86 1.56,-3.33 3.42,-3.31l5.14 0.09c8.2,0.18 10.6,0.23 15.35,-5.37l0.11 -0.14c4.22,-5.03 0.1,-23.51 -4.39,-43.64 -1.36,-6.14 -2.78,-12.47 -3.91,-18.21 -3,-15.22 -6.92,-36.16 -10.38,-56.23 -2.38,-13.8 -4.57,-27.26 -6.11,-38.26l-53.55 29.07c-6.84,18.77 -17.08,42.45 -22.12,60.94 -0.9,2.8 -2.21,6.82 -2.41,8.64 -0.69,6.07 0,11.05 2.22,16.81 2.34,6.07 6.39,13.15 12.26,23.16 0.56,0.86 0.71,1.97 0.32,3 -0.65,1.74 -2.6,2.61 -4.34,1.96l-103.17 -38.75c-1.07,-0.34 -1.95,-1.2 -2.26,-2.35 -0.48,-1.79 0.6,-3.65 2.39,-4.13l6.96 -1.88c21.4,-5.69 27.99,-7.45 40.04,-40.55z"/>
    <path class="fil3" d="M1116.96 3576.13l-20.34 -16.87c-0.84,-0.71 -1.32,-1.8 -1.19,-2.96 0.2,-1.84 1.87,-3.18 3.71,-2.98 14.09,1.56 23.3,1.82 30.33,0.08 6.69,-1.67 11.66,-5.33 17.43,-11.62l8.42 -10.03 4.59 -5.82c3.79,-4.82 8.17,-10.38 13.74,-17.15 54.59,-71.39 120.66,-144.51 178.86,-214.17 0.1,-0.11 6.85,-8.29 12.3,-17.23l0.09 -0.17c2.66,-4.4 4.99,-8.95 5.93,-12.64 0.88,-3.47 0.44,-7.39 -0.54,-11.05 -2.03,-7.51 -6.2,-13.71 -6.4,-13.97l-0.05 -0.08c-1.08,-1.5 -0.75,-3.62 0.75,-4.7 0.74,-0.54 2.23,-0.06 4.19,1.08l0.48 -0.36 0.73 1.11c3.46,2.25 8.03,6.06 12.6,9.94 6.48,5.49 13.07,11.08 14.18,11.9l0.45 0.41c14.44,15.52 9.42,64.63 6.42,93.95 -0.58,5.7 -1.09,10.62 -1.36,14.58l-17.47 307.94 192.18 -229.03c2.05,-4.57 2.54,-8.68 1.61,-13.57 -1.04,-5.39 -3.75,-11.87 -7.93,-20.75 -0.66,-1.19 -0.56,-2.72 0.37,-3.82 1.19,-1.42 3.33,-1.59 4.75,-0.4l58.35 49.42c0.76,0.65 1.23,1.63 1.19,2.71 -0.07,1.86 -1.64,3.3 -3.5,3.23l-4.69 -0.19c-20.01,-0.85 -27.99,-1.17 -43.34,14.25l-54.65 63.91 -132.7 159.36c-14.25,16.61 -24.34,32.06 -29.43,45.68 -4.67,12.5 -5.09,23.4 -0.61,32.13 0.6,1.17 0.48,2.65 -0.42,3.72 -1.19,1.42 -3.33,1.59 -4.75,0.4l-22.57 -19.15c-15.87,-17.67 -8.56,-126.27 -1.51,-230.81 5.35,-79.58 10.56,-156.8 5.54,-188.11 -50.14,59.75 -100.56,119.19 -149.95,179.57 -39.84,47.47 -37.45,53.08 -28.56,73.85 1.68,3.94 3.6,8.41 5.61,13.95 0.52,1.15 0.4,2.54 -0.46,3.58 -1.19,1.43 -3.32,1.63 -4.75,0.45l-6.01 -4.98c-8.49,-7.05 -19.82,-16.35 -25.86,-21.41l-15.77 -13.15z"/>
    <path class="fil3" d="M3353.91 3868.71l-97.06 58.04c-1.05,0.63 -2.42,0.65 -3.52,-0.04 -1.57,-0.99 -2.04,-3.07 -1.05,-4.64 19.29,-30.71 11.38,-43.63 -8.14,-75.49 -3.34,-5.45 -7.04,-11.48 -11.29,-18.74l-120.13 -208.16 -9.33 -16.77c-17.31,-31.61 -22.63,-41.32 -57.96,-40.03 -1.23,0.06 -2.45,-0.55 -3.1,-1.69 -0.92,-1.61 -0.36,-3.68 1.25,-4.6l69.02 -39.44c1.61,-0.91 3.67,-0.36 4.59,1.25l112.81 195.38c5.79,10.02 11.94,22.45 18.55,35.78 25.4,51.29 57.94,116.96 103.33,112.92 1.25,-0.11 2.52,0.48 3.2,1.62 0.95,1.59 0.43,3.66 -1.16,4.61z"/>
    <path class="fil3" d="M2864.97 3980.42c3.91,-2.41 8.37,-5.15 10.43,-7.41 0.57,-0.61 1.36,-1.03 2.25,-1.09 1.86,-0.14 3.47,1.26 3.61,3.11 3.9,51.35 -24.98,89.11 -65.9,109.15 -17.67,8.65 -37.6,14.01 -58.06,15.68 -20.44,1.66 -41.48,-0.3 -61.41,-6.26 -50.5,-15.11 -93.8,-55.77 -102.43,-127.34 -7.65,-63.48 24.54,-115.3 69.32,-145.1 17.86,-11.88 37.75,-20.28 57.91,-24.5 20.22,-4.23 40.78,-4.29 59.88,0.49 38.85,9.73 71.67,39.37 83.84,94.35l0.06 0.26c0.34,1.83 -0.86,3.59 -2.69,3.93 -103.78,19.63 -155.54,56.81 -173.04,92.97 -7.5,15.51 -8.61,30.81 -4.81,44.34 3.81,13.54 12.57,25.39 24.81,33.96 23.97,16.79 61.24,21.13 101.15,1.69 19.56,-11.94 30.41,-24.98 36.75,-38.55 6.35,-13.61 8.29,-28.05 9.94,-42.5 0.05,-0.86 0.44,-1.7 1.13,-2.31 1.53,-1.35 4.14,-2.96 7,-4.72l0.25 -0.18zm-208.59 11.08c21.5,-67.52 95.21,-89.78 134.67,-101.68 7.16,-2.17 13.18,-3.98 17.35,-5.6 -0.66,-9.58 -5.66,-20.2 -13.67,-29.94 -7.46,-9.07 -17.53,-17.35 -29.14,-23.38l-0.13 -0.07c-11.55,-5.97 -24.6,-9.7 -38.07,-9.73 -16.19,-0.03 -33.15,5.24 -49.03,18.31 -19.44,15.99 -29.64,40.63 -32.77,67.53 -3.27,28.11 1.16,58.66 10.79,84.56z"/>
    <path class="fil3" d="M3386.33 3742.98c-3.79,-4.43 -7.21,-8.42 -9.89,-11.91l-92.99 -110.82c-6.3,-6.06 -12.57,-10.15 -20.18,-11.68l-0.12 -0.02c-7.87,-1.57 -17.41,-0.53 -30.13,3.67 -1.28,0.41 -2.73,0.04 -3.63,-1.05 -1.19,-1.42 -1,-3.55 0.42,-4.74l63.12 -52.96c1.42,-1.19 3.55,-1 4.74,0.42l24.03 28.65c1.1,-28.17 4.24,-61.17 48.73,-94.86 48.55,-36.76 80.6,-25.58 103.39,-14.85 -6.75,-21.2 -4.87,-42.22 2.98,-60.87 5.33,-12.68 13.46,-24.29 23.47,-34.06 9.98,-9.75 21.9,-17.72 34.85,-23.2 23.61,-9.98 50.74,-11.7 76.2,-0.99 34.04,14.33 59.44,46.21 83.21,76.02 5.09,6.39 10.11,12.7 14.78,18.3l11.01 13.56c28.48,35.29 43.04,53.32 78.47,46.35 1.19,-0.22 2.46,0.19 3.27,1.19 1.16,1.44 0.93,3.57 -0.51,4.73l-33.39 26.99 -27.72 23.27c-0.6,0.5 -1.32,0.77 -2.04,0.79l-24.09 19.47c-0.94,0.84 -2.32,1.12 -3.56,0.61 -1.71,-0.72 -2.52,-2.7 -1.8,-4.41 5.67,-13.5 6.02,-24.97 2.33,-36.29 -3.8,-11.61 -11.87,-23.29 -22.8,-36.84l-70.72 -84.27c-7.72,-8.21 -15.72,-15.82 -23.9,-22.11 -8.08,-6.21 -16.41,-11.18 -24.89,-14.2 -1.83,-0.65 -3.66,-1.23 -5.44,-1.7l-0.12 -0.03c-15.7,-4.2 -30.95,-2.33 -43.71,4.68 -12.8,7.04 -23.19,19.34 -29.11,35.98 -0.76,2.14 -1.45,4.35 -2.06,6.6l-0.02 0.11c-3.39,12.68 -3.16,23.98 -0.33,34.54l0.09 0.29c2.93,10.77 8.55,20.92 15.77,31.1l95.79 114.16c7.28,7.36 14.84,10.96 23.87,12.53 9.43,1.63 20.67,1.14 34.84,0.38 1.02,-0.04 2.06,0.38 2.76,1.21 1.19,1.42 0.99,3.54 -0.43,4.73 -12.64,10.49 -50.9,45.59 -66.02,54.82l-24.37 20.25c-0.81,0.76 -1.99,1.11 -3.14,0.82 -1.8,-0.45 -2.89,-2.29 -2.44,-4.09 3.86,-15.32 4.33,-26.79 1.32,-37.45 -3.04,-10.76 -9.7,-20.99 -19.98,-33.75l-11.79 -14.05c-8.7,-10.1 -18.88,-22.32 -30.92,-36.74 -7.69,-8.72 -14.78,-18.28 -22.52,-26.93 -27,-32.18 -50.93,-46.72 -71.06,-49.99 -13.01,-2.12 -24.48,0.51 -34.14,6.09 -9.78,5.65 -17.81,14.35 -23.79,24.2 -10.82,17.83 -15.05,39.38 -11.33,53.99 1.91,7.51 5.55,15.55 10.26,23.79 4.78,8.34 10.67,16.87 17.05,25.29l46.73 55.69 3.47 3.88c25.75,28.92 58.46,65.62 87.58,54.04 1.32,-0.52 2.87,-0.18 3.82,0.96 1.19,1.42 1,3.54 -0.42,4.73l-86.34 72.73c-1.08,1.01 -2.76,1.2 -4.07,0.38 -1.57,-0.99 -2.04,-3.07 -1.05,-4.64 16.69,-26.34 -12.37,-60.3 -31.38,-82.5z"/>
   </g>
  </g>
 </g>
</svg>
